<?xml version="1.0" encoding="iso-8859-1"?>
<!-- Generator: Adobe Illustrator 19.0.0, SVG Export Plug-In . SVG Version: 6.00 Build 0)  -->
<svg version="1.1" id="Layer_1" xmlns="http://www.w3.org/2000/svg" xmlns:xlink="http://www.w3.org/1999/xlink" x="0px" y="0px"
	 viewBox="0 0 501.333 501.333" style="enable-background:new 0 0 501.333 501.333;" xml:space="preserve">
<g>
	<g>
		<path d="M308.267,123.733C299.734,61.867,279.467,0,231.467,0c-40.533,0-64,48-66.133,130.133c-38.4,10.667-67.2,28.8-67.2,56.533
			c0,0,0,0,0,1.067c0,2.133,0,4.267,0,6.4l34.133,245.333c0,1.067,0,2.133,0,3.2c5.333,38.4,61.867,58.667,118.4,58.667
			c58.667,0,118.4-22.4,120.533-66.133c0-2.133,0-3.2-1.067-5.333L403.2,195.2c0-2.133,0-4.267,0-6.4c0-1.067,0-2.133,0-2.133
			C403.2,152.533,360.533,132.267,308.267,123.733z M231.467,41.6c11.733,0,25.6,29.867,34.133,77.867c-5.333,0-9.6,0-14.933,0
			c-13.867,0-28.8,1.067-42.667,2.133C211.2,66.133,224,41.6,231.467,41.6z M139.734,186.667c6.4-8.533,44.8-25.6,110.933-25.6
			c7.467,0,13.867,0,20.267,1.067c1.067,16,2.133,32,2.133,50.133c-7.467,0-14.933,1.067-22.4,1.067
			C183.467,212.267,146.134,195.2,139.734,186.667z M327.467,434.133c0,1.067,0,2.133,0,3.2
			c-5.333,7.467-29.867,21.333-75.733,21.333c-50.133,0-75.733-17.067-76.8-22.4c0-3.2-1.067-6.4-2.133-8.533L146.133,236.8
			c28.8,10.667,67.2,16,104.533,16c37.333,0,75.733-5.333,104.533-17.067L327.467,434.133z M314.667,205.867
			c0-11.733-1.067-24.533-1.067-39.467c28.8,5.333,44.8,14.933,49.067,20.267C357.333,190.933,341.333,199.467,314.667,205.867z"/>
	</g>
</g>
<g>
</g>
<g>
</g>
<g>
</g>
<g>
</g>
<g>
</g>
<g>
</g>
<g>
</g>
<g>
</g>
<g>
</g>
<g>
</g>
<g>
</g>
<g>
</g>
<g>
</g>
<g>
</g>
<g>
</g>
</svg>
