<?xml version="1.0" encoding="iso-8859-1"?>
<!-- Generator: Adobe Illustrator 19.0.0, SVG Export Plug-In . SVG Version: 6.00 Build 0)  -->
<svg version="1.1" id="Layer_1" xmlns="http://www.w3.org/2000/svg" xmlns:xlink="http://www.w3.org/1999/xlink" x="0px" y="0px"
	 viewBox="0 0 194.829 194.829" style="enable-background:new 0 0 194.829 194.829;" xml:space="preserve">
<g>
	<g>
		<g>
			<path d="M120.795,77.931L120.795,77.931c-0.001-2.152-1.746-3.897-3.898-3.897H77.932c-2.152,0-3.897,1.745-3.897,3.897v38.966
				c0,2.152,1.745,3.897,3.897,3.897h38.966c2.152,0,3.897-1.745,3.897-3.897V77.931z M113.001,113H81.829V81.828h31.172V113z"/>
			<path d="M50.656,89.621c-2.152,0-3.897,1.745-3.897,3.897v3.897c0,2.152,1.745,3.897,3.897,3.897
				c2.152,0,3.897-1.745,3.897-3.897v-3.897C54.553,91.366,52.808,89.621,50.656,89.621z"/>
			<path d="M54.553,46.759h-3.897c-2.152,0-3.897,1.745-3.897,3.897c0,2.152,1.745,3.897,3.897,3.897h3.897
				c2.152,0,3.897-1.745,3.897-3.897C58.449,48.503,56.704,46.759,54.553,46.759z"/>
			<path d="M50.656,58.448c-2.152,0-3.897,1.745-3.897,3.897v3.897c0,2.152,1.745,3.897,3.897,3.897
				c2.152,0,3.897-1.745,3.897-3.897v-3.897C54.553,60.193,52.808,58.448,50.656,58.448z"/>
			<path d="M50.656,105.207c-2.152,0-3.897,1.745-3.897,3.897V113c0,2.152,1.745,3.897,3.897,3.897c2.152,0,3.897-1.745,3.897-3.897
				v-3.897C54.553,106.952,52.808,105.207,50.656,105.207z"/>
			<path d="M50.656,74.034c-2.152,0-3.897,1.745-3.897,3.897v3.897c0,2.152,1.745,3.897,3.897,3.897
				c2.152,0,3.897-1.745,3.897-3.897v-3.897C54.553,75.779,52.808,74.034,50.656,74.034z"/>
			<path d="M85.726,46.758h-3.897c-2.152,0-3.897,1.745-3.897,3.897c0,2.152,1.745,3.897,3.897,3.897h3.897
				c2.152,0,3.897-1.745,3.897-3.897C89.623,48.503,87.878,46.758,85.726,46.758z"/>
			<path d="M101.312,46.758h-3.897c-2.152,0-3.897,1.745-3.897,3.897c0,2.152,1.745,3.897,3.897,3.897h3.897
				c2.152,0,3.897-1.745,3.897-3.897C105.209,48.503,103.464,46.758,101.312,46.758z"/>
			<path d="M113.001,54.552h3.897c2.152,0,3.897-1.745,3.897-3.897c0-2.152-1.745-3.897-3.897-3.897h-3.897
				c-2.152,0-3.897,1.745-3.897,3.897C109.104,52.807,110.849,54.552,113.001,54.552z"/>
			<path d="M50.656,136.379c-2.152,0-3.897,1.745-3.897,3.897v3.897c0,2.152,1.745,3.897,3.897,3.897
				c2.152,0,3.897-1.745,3.897-3.897v-3.897C54.553,138.124,52.808,136.379,50.656,136.379z"/>
			<path d="M50.656,120.793c-2.152,0-3.897,1.745-3.897,3.897v3.897c0,2.152,1.745,3.897,3.897,3.897
				c2.152,0,3.897-1.745,3.897-3.897v-3.897C54.553,122.538,52.808,120.793,50.656,120.793z"/>
			<path d="M81.829,140.276h-3.897c-2.152,0-3.897,1.745-3.897,3.897c0,2.152,1.745,3.897,3.897,3.897h3.897
				c2.152,0,3.897-1.745,3.897-3.897C85.725,142.021,83.98,140.276,81.829,140.276z"/>
			<path d="M132.484,46.759h-3.897c-2.152,0-3.897,1.745-3.897,3.897c0,2.152,1.745,3.897,3.897,3.897h3.897
				c2.152,0,3.897-1.745,3.897-3.897C136.38,48.503,134.635,46.759,132.484,46.759z"/>
			<path d="M113.001,140.276h-3.897c-2.152,0-3.897,1.745-3.897,3.897c0,2.152,1.745,3.897,3.897,3.897h3.897
				c2.152,0,3.897-1.745,3.897-3.897C116.898,142.021,115.152,140.276,113.001,140.276z"/>
			<path d="M144.173,124.69c-2.152,0-3.897,1.745-3.897,3.897v3.897c0,2.152,1.745,3.897,3.897,3.897s3.897-1.745,3.897-3.897
				v-3.897C148.07,126.435,146.325,124.69,144.173,124.69z"/>
			<path d="M128.587,140.276h-3.897c-2.152,0-3.897,1.745-3.897,3.897c0,2.152,1.745,3.897,3.897,3.897h3.897
				c2.152,0,3.897-1.745,3.897-3.897C132.484,142.021,130.739,140.276,128.587,140.276z"/>
			<path d="M144.173,109.103c-2.152,0-3.897,1.745-3.897,3.897v3.897c0,2.152,1.745,3.897,3.897,3.897s3.897-1.745,3.897-3.897V113
				C148.07,110.848,146.325,109.103,144.173,109.103z"/>
			<path d="M144.173,46.759c-2.152,0-3.897,1.745-3.897,3.897v3.897c0,2.152,1.745,3.897,3.897,3.897s3.897-1.745,3.897-3.897
				v-3.897C148.07,48.503,146.325,46.759,144.173,46.759z"/>
			<path d="M144.173,62.345c-2.152,0-3.897,1.745-3.897,3.897v3.897c0,2.152,1.745,3.897,3.897,3.897s3.897-1.745,3.897-3.897
				v-3.897C148.07,64.09,146.325,62.345,144.173,62.345z"/>
			<path d="M144.173,93.517c-2.152,0-3.897,1.745-3.897,3.897v3.897c0,2.152,1.745,3.897,3.897,3.897s3.897-1.745,3.897-3.897
				v-3.897C148.07,95.262,146.325,93.517,144.173,93.517z"/>
			<path d="M144.173,77.931c-2.152,0-3.897,1.745-3.897,3.897v3.897c0,2.152,1.745,3.897,3.897,3.897s3.897-1.745,3.897-3.897
				v-3.897C148.07,79.676,146.325,77.931,144.173,77.931z"/>
			<path d="M144.173,140.276h-3.897c-2.152,0-3.897,1.745-3.897,3.897c0,2.152,1.745,3.897,3.897,3.897h3.897
				c2.152,0,3.897-1.745,3.897-3.897C148.07,142.021,146.325,140.276,144.173,140.276z"/>
			<path d="M97.415,140.276h-3.897c-2.152,0-3.897,1.745-3.897,3.897c0,2.152,1.745,3.897,3.897,3.897h3.897
				c2.152,0,3.897-1.745,3.897-3.897C101.311,142.021,99.566,140.276,97.415,140.276z"/>
			<path d="M66.242,140.276h-3.897c-2.152,0-3.897,1.745-3.897,3.897c0,2.152,1.745,3.897,3.897,3.897h3.897
				c2.152,0,3.897-1.745,3.897-3.897C70.139,142.021,68.394,140.276,66.242,140.276z"/>
			<path d="M70.139,46.759h-3.897c-2.152,0-3.897,1.745-3.897,3.897c0,2.152,1.745,3.897,3.897,3.897h3.897
				c2.152,0,3.897-1.745,3.897-3.897C74.035,48.503,72.29,46.759,70.139,46.759z"/>
			<path d="M97.415,7.793h3.897c2.152,0,3.897-1.745,3.897-3.897S103.462,0,101.311,0h-3.897c-2.152,0-3.897,1.745-3.897,3.897
				C93.516,6.049,95.263,7.793,97.415,7.793z"/>
			<path d="M175.346,187.034h-3.897c-2.152,0-3.897,1.745-3.897,3.897c0,2.152,1.745,3.897,3.897,3.897h3.897
				c2.152,0,3.897-1.745,3.897-3.897C179.242,188.779,177.498,187.034,175.346,187.034z"/>
			<path d="M163.656,0h-3.897c-2.152,0-3.897,1.745-3.897,3.897c0,2.152,1.745,3.897,3.897,3.897h3.897
				c2.152,0,3.897-1.745,3.897-3.897C167.553,1.745,165.808,0,163.656,0z"/>
			<path d="M159.76,187.034h-3.897c-2.152,0-3.897,1.745-3.897,3.897c0,2.152,1.745,3.897,3.897,3.897h3.897
				c2.152,0,3.897-1.745,3.897-3.897C163.656,188.779,161.911,187.034,159.76,187.034z"/>
			<path d="M179.242,0h-3.897c-2.152,0-3.897,1.745-3.897,3.897c0,2.152,1.745,3.897,3.897,3.897h3.897
				c2.152,0,3.897-1.745,3.897-3.897C183.139,1.745,181.394,0,179.242,0z"/>
			<path d="M190.932,187.034h-3.897c-2.152,0-3.897,1.745-3.897,3.897c0,2.152,1.745,3.897,3.897,3.897h3.897
				c2.152,0,3.897-1.745,3.897-3.897C194.829,188.779,193.084,187.034,190.932,187.034z"/>
			<path d="M148.07,0h-3.897c-2.152,0-3.897,1.745-3.897,3.897c0,2.152,1.745,3.897,3.897,3.897h3.897
				c2.152,0,3.897-1.745,3.897-3.897C151.967,1.745,150.222,0,148.07,0z"/>
			<path d="M190.932,171.448c-2.152,0-3.897,1.745-3.897,3.897v3.897c0,2.152,1.745,3.897,3.897,3.897
				c2.152,0,3.897-1.745,3.897-3.897v-3.897C194.829,173.193,193.084,171.448,190.932,171.448z"/>
			<path d="M113.001,187.034h-3.897c-2.152,0-3.897,1.745-3.897,3.897c0,2.152,1.745,3.897,3.897,3.897h3.897
				c2.152,0,3.897-1.745,3.897-3.897C116.898,188.779,115.152,187.034,113.001,187.034z"/>
			<path d="M97.415,187.034h-3.897c-2.152,0-3.897,1.745-3.897,3.897c0,2.152,1.745,3.897,3.897,3.897h3.897
				c2.152,0,3.897-1.745,3.897-3.897C101.311,188.779,99.566,187.034,97.415,187.034z"/>
			<path d="M144.173,187.034h-3.897c-2.152,0-3.897,1.745-3.897,3.897c0,2.152,1.745,3.897,3.897,3.897h3.897
				c2.152,0,3.897-1.745,3.897-3.897C148.07,188.779,146.325,187.034,144.173,187.034z"/>
			<path d="M128.587,187.034h-3.897c-2.152,0-3.897,1.745-3.897,3.897c0,2.152,1.745,3.897,3.897,3.897h3.897
				c2.152,0,3.897-1.745,3.897-3.897C132.484,188.779,130.739,187.034,128.587,187.034z"/>
			<path d="M190.932,109.103c-2.152,0-3.897,1.745-3.897,3.897v3.897c0,2.152,1.745,3.897,3.897,3.897
				c2.152,0,3.897-1.745,3.897-3.897V113C194.829,110.848,193.084,109.103,190.932,109.103z"/>
			<path d="M190.932,46.759c-2.152,0-3.897,1.745-3.897,3.897v3.897c0,2.152,1.745,3.897,3.897,3.897
				c2.152,0,3.897-1.745,3.897-3.897v-3.897C194.829,48.503,193.084,46.759,190.932,46.759z"/>
			<path d="M190.932,31.172c-2.152,0-3.897,1.745-3.897,3.897v3.897c0,2.152,1.745,3.897,3.897,3.897
				c2.152,0,3.897-1.745,3.897-3.897v-3.897C194.829,32.917,193.084,31.172,190.932,31.172z"/>
			<path d="M190.932,62.345c-2.152,0-3.897,1.745-3.897,3.897v3.897c0,2.152,1.745,3.897,3.897,3.897
				c2.152,0,3.897-1.745,3.897-3.897v-3.897C194.829,64.09,193.084,62.345,190.932,62.345z"/>
			<path d="M190.932,0c-2.152,0-3.897,1.745-3.897,3.897v3.897c0,2.152,1.745,3.897,3.897,3.897c2.152,0,3.897-1.745,3.897-3.897
				V3.897C194.829,1.745,193.084,0,190.932,0z"/>
			<path d="M190.932,15.586c-2.152,0-3.897,1.745-3.897,3.897v3.897c0,2.152,1.745,3.897,3.897,3.897
				c2.152,0,3.897-1.745,3.897-3.897v-3.897C194.829,17.331,193.084,15.586,190.932,15.586z"/>
			<path d="M81.829,187.034h-3.897c-2.152,0-3.897,1.745-3.897,3.897c0,2.152,1.745,3.897,3.897,3.897h3.897
				c2.152,0,3.897-1.745,3.897-3.897C85.725,188.779,83.98,187.034,81.829,187.034z"/>
			<path d="M190.932,140.276c-2.152,0-3.897,1.745-3.897,3.897v3.897c0,2.152,1.745,3.897,3.897,3.897
				c2.152,0,3.897-1.745,3.897-3.897v-3.897C194.829,142.021,193.084,140.276,190.932,140.276z"/>
			<path d="M190.932,124.69c-2.152,0-3.897,1.745-3.897,3.897v3.897c0,2.152,1.745,3.897,3.897,3.897
				c2.152,0,3.897-1.745,3.897-3.897v-3.897C194.829,126.435,193.084,124.69,190.932,124.69z"/>
			<path d="M190.932,77.931c-2.152,0-3.897,1.745-3.897,3.897v3.897c0,2.152,1.745,3.897,3.897,3.897
				c2.152,0,3.897-1.745,3.897-3.897v-3.897C194.829,79.676,193.084,77.931,190.932,77.931z"/>
			<path d="M190.932,155.862c-2.152,0-3.897,1.745-3.897,3.897v3.897c0,2.152,1.745,3.897,3.897,3.897
				c2.152,0,3.897-1.745,3.897-3.897v-3.897C194.829,157.607,193.084,155.862,190.932,155.862z"/>
			<path d="M190.932,93.517c-2.152,0-3.897,1.745-3.897,3.897v3.897c0,2.152,1.745,3.897,3.897,3.897
				c2.152,0,3.897-1.745,3.897-3.897v-3.897C194.829,95.262,193.084,93.517,190.932,93.517z"/>
			<path d="M3.897,183.138c-2.152,0-3.897,1.745-3.897,3.897v3.897c0,2.152,1.745,3.897,3.897,3.897
				c2.152,0,3.897-1.745,3.897-3.897v-3.897C7.794,184.883,6.048,183.138,3.897,183.138z"/>
			<path d="M3.897,136.379c-2.152,0-3.897,1.745-3.897,3.897v3.897c0,2.152,1.745,3.897,3.897,3.897
				c2.152,0,3.897-1.745,3.897-3.897v-3.897C7.794,138.124,6.048,136.379,3.897,136.379z"/>
			<path d="M3.897,151.966c-2.152,0-3.897,1.745-3.897,3.897v3.897c0,2.152,1.745,3.897,3.897,3.897
				c2.152,0,3.897-1.745,3.897-3.897v-3.897C7.794,153.71,6.048,151.966,3.897,151.966z"/>
			<path d="M3.897,167.552c-2.152,0-3.897,1.745-3.897,3.897v3.897c0,2.152,1.745,3.897,3.897,3.897
				c2.152,0,3.897-1.745,3.897-3.897v-3.897C7.794,169.297,6.048,167.552,3.897,167.552z"/>
			<path d="M3.897,105.207c-2.152,0-3.897,1.745-3.897,3.897V113c0,2.152,1.745,3.897,3.897,3.897c2.152,0,3.897-1.745,3.897-3.897
				v-3.897C7.794,106.952,6.048,105.207,3.897,105.207z"/>
			<path d="M3.897,120.793c-2.152,0-3.897,1.745-3.897,3.897v3.897c0,2.152,1.745,3.897,3.897,3.897
				c2.152,0,3.897-1.745,3.897-3.897v-3.897C7.794,122.538,6.048,120.793,3.897,120.793z"/>
			<path d="M3.897,89.621c-2.152,0-3.897,1.745-3.897,3.896v3.897c0,2.152,1.745,3.897,3.897,3.897c2.152,0,3.897-1.745,3.897-3.897
				v-3.897C7.794,91.366,6.048,89.621,3.897,89.621z"/>
			<path d="M113.001,7.793h3.897c2.152,0,3.897-1.745,3.897-3.897S119.048,0,116.898,0h-3.897c-2.152,0-3.897,1.745-3.897,3.897
				C109.104,6.049,110.849,7.793,113.001,7.793z"/>
			<path d="M81.829,7.793h3.897c2.152,0,3.897-1.745,3.897-3.897S87.876,0,85.725,0h-3.897c-2.152,0-3.897,1.745-3.897,3.897
				C77.93,6.049,79.677,7.793,81.829,7.793z"/>
			<path d="M66.242,7.793h3.897c2.152,0,3.897-1.745,3.897-3.897S72.29,0,70.139,0h-3.897c-2.152,0-3.897,1.745-3.897,3.897
				C62.344,6.049,64.091,7.793,66.242,7.793z"/>
			<path d="M128.587,7.793h3.897c2.152,0,3.897-1.745,3.897-3.897S134.635,0,132.484,0h-3.897c-2.152,0-3.897,1.745-3.897,3.897
				C124.69,6.049,126.436,7.793,128.587,7.793z"/>
			<path d="M50.656,7.793h3.897c2.152,0,3.897-1.745,3.897-3.897S56.704,0,54.553,0h-3.897c-2.152,0-3.897,1.745-3.897,3.897
				C46.758,6.049,48.503,7.793,50.656,7.793z"/>
			<path d="M3.897,58.448c-2.152,0-3.897,1.745-3.897,3.897v3.897c0,2.152,1.745,3.897,3.897,3.897c2.152,0,3.897-1.745,3.897-3.897
				v-3.897C7.794,60.193,6.048,58.448,3.897,58.448z"/>
			<path d="M19.483,187.034h-3.897c-2.152,0-3.897,1.745-3.897,3.897c0,2.152,1.745,3.897,3.897,3.897h3.897
				c2.152,0,3.897-1.745,3.897-3.897C23.38,188.779,21.634,187.034,19.483,187.034z"/>
			<path d="M23.38,0h-3.897c-2.152,0-3.897,1.745-3.897,3.897c0,2.152,1.745,3.897,3.897,3.897h3.897
				c2.152,0,3.897-1.745,3.897-3.897C27.277,1.745,25.532,0,23.38,0z"/>
			<path d="M35.07,187.034h-3.897c-2.152,0-3.897,1.745-3.897,3.897c0,2.152,1.745,3.897,3.897,3.897h3.897
				c2.152,0,3.897-1.745,3.897-3.897C38.967,188.779,37.222,187.034,35.07,187.034z"/>
			<path d="M38.967,0H35.07c-2.152,0-3.897,1.745-3.897,3.897c0,2.152,1.745,3.897,3.897,3.897h3.897
				c2.152,0,3.897-1.745,3.897-3.897C42.863,1.745,41.118,0,38.967,0z"/>
			<path d="M3.897,74.034c-2.152,0-3.897,1.745-3.897,3.897v3.897c0,2.152,1.745,3.897,3.897,3.897c2.152,0,3.897-1.745,3.897-3.897
				v-3.897C7.794,75.779,6.048,74.034,3.897,74.034z"/>
			<path d="M50.656,187.034h-3.897c-2.152,0-3.897,1.745-3.897,3.897c0,2.152,1.745,3.897,3.897,3.897h3.897
				c2.152,0,3.897-1.745,3.897-3.897C54.553,188.779,52.808,187.034,50.656,187.034z"/>
			<path d="M66.242,187.034h-3.897c-2.152,0-3.897,1.745-3.897,3.897c0,2.152,1.745,3.897,3.897,3.897h3.897
				c2.152,0,3.897-1.745,3.897-3.897C70.139,188.779,68.394,187.034,66.242,187.034z"/>
			<path d="M3.897,42.862c-2.152,0-3.897,1.745-3.897,3.897v3.897c0,2.152,1.745,3.897,3.897,3.897c2.152,0,3.897-1.745,3.897-3.897
				v-3.897C7.794,44.607,6.048,42.862,3.897,42.862z"/>
			<path d="M3.897,11.69c-2.152,0-3.897,1.745-3.897,3.896v3.897c0,2.152,1.745,3.897,3.897,3.897c2.152,0,3.897-1.745,3.897-3.897
				v-3.897C7.794,13.435,6.048,11.69,3.897,11.69z"/>
			<path d="M7.794,0H3.897C1.745,0,0.001,1.745,0.001,3.897c0,2.152,1.745,3.897,3.897,3.897h3.897c2.152,0,3.897-1.745,3.897-3.897
				C11.691,1.745,9.946,0,7.794,0z"/>
			<path d="M3.897,27.276c-2.152,0-3.897,1.745-3.897,3.896v3.897c0,2.152,1.745,3.897,3.897,3.897c2.152,0,3.897-1.745,3.897-3.897
				v-3.897C7.794,29.021,6.048,27.276,3.897,27.276z"/>
		</g>
	</g>
</g>
<g>
</g>
<g>
</g>
<g>
</g>
<g>
</g>
<g>
</g>
<g>
</g>
<g>
</g>
<g>
</g>
<g>
</g>
<g>
</g>
<g>
</g>
<g>
</g>
<g>
</g>
<g>
</g>
<g>
</g>
</svg>
